<?xml version="1.0" encoding="iso-8859-1"?>
<!-- Generator: Adobe Illustrator 19.0.0, SVG Export Plug-In . SVG Version: 6.00 Build 0)  -->
<svg version="1.1" id="Capa_1" xmlns="http://www.w3.org/2000/svg" xmlns:xlink="http://www.w3.org/1999/xlink" x="0px" y="0px"
	 viewBox="0 0 512.001 512.001" style="enable-background:new 0 0 512.001 512.001;" xml:space="preserve">
<path style="fill:#5EAC24;" d="M255.343,130.612c-69.542,69.542-114.375,114.36-138.909,138.898
	c-3.749,3.749-10.05,2.447-12.097-2.447c-12.097-29.004-4.673-67.512,20.183-98.931
	C156.268,128.086,213.644,105.125,255.343,130.612z"/>
<path style="fill:#6DC82A;" d="M237.291,122.768c-69.177,69.158-61.723,61.717-97.051,97.041c-3.749,3.749-10.05,2.447-12.097-2.447
	c-6.133-14.691-7.246-31.818-3.623-49.229C156.247,128.112,202.953,113.309,237.291,122.768z"/>
<g>
	<path style="fill:#5EAC24;" d="M315.178,174.999C315.178,174.999,315.179,175,315.178,174.999
		C314.825,174.757,314.833,174.757,315.178,174.999z"/>
	<path style="fill:#5EAC24;" d="M425.409,238.627c-1.134,5.177-7.099,7.592-11.457,4.589
		c-122.461-84.57-48.744-33.669-161.644-111.637c6.605-6.038,14.807-10.848,24.121-14.124c27.324-9.609,64.277-6.101,98.868,17.778
		c11.992,8.285,22.105,18.062,30.107,28.658C423.15,187.329,430.607,214.737,425.409,238.627z"/>
	<path style="fill:#5EAC24;" d="M293.863,129.492c0.019,0.013,0.042,0.028,0.066,0.045l0.004,0.004
		c-0.043-0.029-0.075-0.051-0.102-0.07C293.842,129.478,293.853,129.486,293.863,129.492z"/>
</g>
<path style="fill:#6DC82A;" d="M405.404,163.89c-8.002-10.596-18.114-20.372-30.107-28.658
	c-34.591-23.88-71.544-27.387-98.868-17.778c6.289,4.34,112.548,77.724,117.224,80.953c4.358,3.003,10.323,0.588,11.457-4.589
	C407.189,184.252,407.242,174.108,405.404,163.89z"/>
<path style="fill:#5EAC24;" d="M258.052,128.806l-1.334-0.662h-0.01c-0.62-0.305-10.963-5.387-25.591-12.57
	c-37.626-18.482-103.562-50.867-104.99-51.561C92.828,47.664,84.133,43.39,82.211,42.445c0,0-0.021-0.011-0.105-0.053l-0.011-0.01
	l-0.053-0.021c-0.011-0.011-0.021-0.011-0.032-0.021c-0.053-0.021-0.147-0.063-0.158-0.074c-0.021-0.011-0.042-0.021-0.063-0.032
	c-0.01-0.01-0.021-0.01-0.032-0.01l-0.032-0.021c-4.746-2.331-5.545-8.726-1.586-12.234c2.468-2.184,5.062-4.179,7.75-5.996h0.011
	c53.734-36.25,148.475,0.147,168.533,67.386v0.01C260.153,103.793,260.898,116.415,258.052,128.806z"/>
<path style="fill:#6DC82A;" d="M231.117,115.575c-37.626-18.482-103.562-50.867-104.99-51.561
	C92.828,47.664,84.133,43.39,82.211,42.445c0,0-0.021-0.011-0.105-0.053l-0.011-0.01l-0.053-0.021
	c-0.011-0.011-0.021-0.011-0.032-0.021c-0.053-0.021-0.147-0.063-0.158-0.074c-0.021-0.011-0.042-0.021-0.063-0.032
	c-0.01-0.01-0.021-0.01-0.032-0.01l-0.032-0.021c-4.746-2.331-5.545-8.726-1.586-12.234c2.468-2.184,5.062-4.179,7.75-5.996h0.011
	c53.734-12.108,123.64,22.651,140.526,79.283v0.011C229.657,107.352,230.561,111.458,231.117,115.575z"/>
<path style="fill:#5EAC24;" d="M430.365,39.442c-0.305,0.158-1.428,0.725-3.266,1.67c-19.784,10.102-121.802,62.219-158.661,81.048
	c-7.141,3.644-11.835,6.049-13.011,6.647c-8.705-33.394,11.079-80.775,61.537-106.534c41.71-21.307,87.842-18.177,114.798,4.915
	C435.783,30.631,435.08,37.037,430.365,39.442z"/>
<path style="fill:#6DC82A;" d="M427.099,41.111c-19.784,10.102-121.803,62.219-158.661,81.048
	c5.702-27.303,26.053-56.423,61.831-74.684C363.767,30.358,400.122,29.014,427.099,41.111z"/>
<path style="fill:#EE8700;" d="M286.635,207.428c0,6.668-0.074,13.378-0.21,20.12c-0.115,5.23-0.273,10.48-0.473,15.752
	c-1.554,41.7-5.755,84.419-12.36,125.751c-0.84,5.272-1.722,10.522-2.646,15.752c-7.477,42.498-17.505,83.169-29.781,119.324
	h-65.107l5.944-15.279c5.839-15.006,11.331-30.957,16.434-47.602c1.596-5.177,3.15-10.438,4.662-15.752
	c9.167-32.102,16.928-66.388,23.018-101.252c0.914-5.24,1.785-10.491,2.625-15.752c10.449-65.527,14.891-132.178,11.583-189.283
	l-1.565-8.915h39.873l2.678,3.759C284.904,143.287,286.635,174.822,286.635,207.428z"/>
<path style="fill:#CC7400;" d="M286.635,207.428c0,6.668-0.074,13.378-0.21,20.12c-0.115,5.23-0.273,10.48-0.473,15.752
	c-1.554,41.7-5.755,84.419-12.36,125.751c-0.84,5.272-1.722,10.522-2.646,15.752c-7.477,42.498-17.505,83.169-29.781,119.324
	h-37.804l5.944-15.279c5.839-15.006,11.331-30.957,16.434-47.602c1.596-5.177,3.15-10.438,4.663-15.752
	c9.167-32.102,16.928-66.388,23.018-101.252c0.914-5.24,1.785-10.491,2.625-15.752c10.449-65.527,14.891-132.178,11.583-189.283
	l-1.565-8.915h12.57l2.678,3.759C284.904,143.287,286.635,174.822,286.635,207.428z"/>
<path style="fill:#47821C;" d="M262.137,170.569c0,2.909-0.357,5.734-1.04,8.422c-3.759,14.954-17.295,26.011-33.404,26.011
	c-19.018,0-34.433-15.416-34.433-34.433c0-10.102,4.347-19.186,11.278-25.497c6.122-5.545,14.24-8.936,23.155-8.936
	C246.711,136.136,262.137,151.552,262.137,170.569z"/>
<path style="fill:#4E901E;" d="M262.137,170.569c0,2.909-0.357,5.734-1.04,8.422c-6.122,5.555-14.25,8.947-23.165,8.947
	c-19.018,0-34.433-15.416-34.433-34.433c0-2.909,0.357-5.734,1.04-8.432c6.122-5.545,14.24-8.936,23.155-8.936
	C246.711,136.136,262.137,151.552,262.137,170.569z"/>
<path style="fill:#6DC82A;" d="M324.702,170.569c0,19.018-15.416,34.433-34.433,34.433c-13.914,0-25.896-8.254-31.325-20.131
	c-1.995-4.358-3.108-9.199-3.108-14.303c0-19.018,15.416-34.433,34.433-34.433c8.422,0,16.151,3.024,22.136,8.054
	C319.925,150.512,324.702,159.984,324.702,170.569z"/>
<path style="fill:#7ED63E;" d="M315.514,158.493c0,19.018-15.416,34.433-34.433,34.433c-8.432,0-16.151-3.024-22.136-8.054
	c-1.995-4.358-3.108-9.199-3.108-14.303c0-19.018,15.416-34.433,34.433-34.433c8.422,0,16.151,3.024,22.136,8.054
	C314.402,148.548,315.514,153.389,315.514,158.493z"/>
<path style="fill:#91DC5A;" d="M294.47,125.267c0,5.734-1.397,11.142-3.885,15.899c-5.744,11.016-17.264,18.534-30.548,18.534
	c-19.028,0-34.444-15.416-34.444-34.433c0-11.299,5.44-21.328,13.851-27.618c5.744-4.274,12.874-6.815,20.593-6.815
	C279.054,90.834,294.47,106.25,294.47,125.267z"/>
<path style="fill:#A4E276;" d="M294.47,125.267c0,5.734-1.397,11.142-3.885,15.899c-5.744,4.284-12.853,6.815-20.572,6.815
	c-19.028,0-34.444-15.416-34.444-34.444c0-5.734,1.397-11.131,3.875-15.888c5.744-4.274,12.874-6.815,20.593-6.815
	C279.054,90.834,294.47,106.25,294.47,125.267z"/>
<path d="M319.215,105.066c-0.006,0.003-0.013,0.006-0.019,0.009C319.204,105.072,319.21,105.068,319.215,105.066z"/>
<path d="M436.887,21.201C385.862-22.487,289.99,4.958,256.278,70.483C221.112,4.719,124.64-19.862,74.923,24.068
	c-8.152,7.238-6.435,20.415,3.339,25.213c40.595,19.947,127.059,62.4,128.744,63.227c-75.543,6.763-136.831,93.077-109.936,157.59
	c4.225,10.091,17.263,12.655,24.93,4.988l21.485-21.485l0,0c17.992-17.993,35.805-35.805,53.65-53.65
	c9.078,9.435,21.864,13.955,34.538,12.738c-11.008,169.018-60.095,280.365-61,283.56h-68.237c-4.351,0-7.876,3.526-7.876,7.876
	c0,4.35,3.525,7.876,7.876,7.876c4.601,0,272.033,0,280.225,0c4.351,0,7.876-3.526,7.876-7.876c0-4.35-3.525-7.876-7.876-7.876
	H252.056c5.849-18.26,11.235-37.803,16.034-58.237c0.998-4.232-1.628-8.474-5.86-9.472c-4.232-0.987-8.474,1.628-9.472,5.87
	c-5.135,21.831-10.932,42.611-17.263,61.839h-47.917c1.908-5.192,8.851-21.307,19.09-55.003h14.607c4.347,0,7.876-3.528,7.876-7.876
	c0-4.348-3.528-7.876-7.876-7.876h-9.987c9.052-32.091,16.749-66.367,22.808-101.252h10.543c4.347,0,7.876-3.518,7.876-7.876
	c0-4.347-3.528-7.876-7.876-7.876h-7.939c5.335-33.698,9.104-67.732,11.047-100.674c4.232-2.289,8.023-5.272,11.236-8.789
	c5.24,5.765,12.055,10.081,19.763,12.255c-0.021,5.398-0.084,10.816-0.21,16.266H262.84c-4.347,0-7.876,3.528-7.876,7.876
	c0,4.347,3.528,7.876,7.876,7.876h15.237c-1.544,41.752-5.765,84.303-12.454,125.751h-11.341c-4.347,0-7.876,3.528-7.876,7.876
	s3.528,7.876,7.876,7.876h8.674c-1.145,6.395-2.331,12.759-3.591,19.081c-0.84,4.263,1.932,8.411,6.196,9.251
	c4.263,0.851,8.411-1.922,9.262-6.185c12.595-63.698,19.4-131.05,19.669-194.281c13.588-1.355,25.287-9.146,32.018-20.278
	c-0.107-0.075,71.506,49.388,82.969,57.305c8.759,6.066,21.248,1.52,23.628-9.398c6.58-30.452-5.305-62.59-26.19-87.107
	c-2.825-3.308-7.792-3.707-11.1-0.893c-3.318,2.825-3.717,7.792-0.893,11.11c21.315,25.025,27.196,52.228,22.913,72.92
	l-26.935-18.598l6.71-9.325c2.531-3.539,1.733-8.453-1.796-10.995c-3.539-2.541-8.453-1.743-10.995,1.796l-6.878,9.567
	l-20.761-14.334l15.699-20.887c2.615-3.476,1.911-8.411-1.565-11.026c-3.476-2.615-8.411-1.911-11.026,1.565l-16.077,21.391
	l-12.139-8.39c3.092-19.608-7.962-38.462-25.969-45.753c0.537-3.625,0.577-7.402,0.158-10.942
	c23.8,0.023,47.336,8.894,66.924,22.997c3.528,2.541,8.453,1.754,10.995-1.764c2.552-3.528,1.764-8.453-1.764-11.005
	c-18.609-13.454-40.759-22.727-63.752-25.276c-0.02,0.011-0.022,0.012,0,0l0,0c0.106-0.055,0.637-0.326,0.531-0.271
	c37.582-19.197-33.858,17.294,38.858-19.849h0.011c39.713-20.291-15.023,7.654,75.881-38.77c4.536-2.321,7.603-6.721,8.212-11.782
	C442.757,29.581,440.781,24.551,436.887,21.201z M180.953,82.171l11.709-17.726c2.405-3.633,1.407-8.516-2.226-10.911
	c-3.633-2.405-8.516-1.407-10.911,2.226l-12.822,19.406l-36.911-18.135l9.062-17.82c1.974-3.875,0.431-8.621-3.444-10.585
	c-3.875-1.974-8.611-0.431-10.585,3.444l-9.167,18.02L85.845,35.451c45.091-39.043,136.414-10.064,160.804,51.34
	c-8.264,3.791-15.101,10.155-19.48,18.072L180.953,82.171z M208.298,188.789c-4.277-4.548-6.669-10.456-7.046-15.731
	c-0.41-4.326-4.263-7.508-8.569-7.12c-4.337,0.41-7.519,4.242-7.12,8.569c0.389,4.19,1.365,8.17,2.846,11.887l-8.012,8.012
	l-23.848-22.945c-3.129-3.024-8.117-2.93-11.131,0.21c-3.014,3.129-2.919,8.117,0.21,11.131l23.628,22.745l-25.266,25.266
	l-6.343-6.92c-2.94-3.213-7.918-3.434-11.121-0.494c-3.213,2.94-3.434,7.918-0.494,11.131l6.805,7.435l0,0l-21.475,21.475
	c-24.234-59.831,42.772-140.776,110.65-135.359c0.01,0.189,0.021,0.368,0.042,0.557c-8.653,1.145-16.728,4.946-23.197,10.963
	c-3.182,2.972-3.36,7.949-0.399,11.131c2.972,3.192,7.949,3.36,11.131,0.399c4.599-4.284,10.501-6.773,16.739-7.078
	c5.164,10.442,14.891,18.994,27.586,22.252C258.21,192.083,226.104,207.752,208.298,188.789z M250.723,102.417h0.326
	c-0.01-0.063-0.021-0.116-0.032-0.168c17.945-10.418,41.817,3.233,39.61,26.011c-1.484,13.195-12.722,23.565-26.389,23.565
	C237.023,151.825,227.729,115.942,250.723,102.417z M313.509,183.412c-9.979,18.017-35.333,18.164-45.848,1.071
	c2.015-5.769,2.681-11.803,2.216-17.285c13.159-1.734,24.642-9.693,31.083-20.939C315.23,152.552,321.078,169.742,313.509,183.412z
	 M319.026,105.162c0.007-0.003,0.017-0.008,0.023-0.012C319.042,105.155,319.035,105.158,319.026,105.162z M394.126,49.113
	l-6.29-13.336c-1.848-3.927-6.553-5.618-10.48-3.759c-3.938,1.859-5.618,6.553-3.759,10.48l6.5,13.777L350.83,71.229l-11.772-22.756
	c-2.006-3.864-6.752-5.377-10.617-3.381c-3.864,2.006-5.377,6.752-3.381,10.617l11.74,22.693l-39.684,20.267
	c-7.099-8.758-17.621-14.639-29.519-15.573c26.015-60.237,114.185-87.517,158.546-50.342L394.126,49.113z"/>
<path d="M318.664,105.347l0.009-0.004L318.664,105.347z"/>
<g>
</g>
<g>
</g>
<g>
</g>
<g>
</g>
<g>
</g>
<g>
</g>
<g>
</g>
<g>
</g>
<g>
</g>
<g>
</g>
<g>
</g>
<g>
</g>
<g>
</g>
<g>
</g>
<g>
</g>
</svg>
